<?xml version="1.0" encoding="utf-8"?>
<!-- Generator: Adobe Illustrator 22.1.0, SVG Export Plug-In . SVG Version: 6.00 Build 0)  -->
<svg version="1.1" xmlns="http://www.w3.org/2000/svg" xmlns:xlink="http://www.w3.org/1999/xlink" x="0px" y="0px"
	 viewBox="0 0 630 630" style="enable-background:new 0 0 630 630;" xml:space="preserve">
<style type="text/css">
	.st0{fill:#E5E05C;}
	.st1{fill:url(#SVGID_1_);}
	.st2{fill:#FFFFFF;}
	.st3{fill:#52B0C6;}
	.st4{fill:url(#SVGID_2_);}
	.st5{display:none;}
	.st6{display:inline;}
</style>
<g id="bg">
	<rect class="st0" width="630" height="630"/>
</g>
<g id="Layer_1_copy">
	<g id="Layer_4">
		<radialGradient id="SVGID_1_" cx="157.5" cy="334.9569" r="131.0772" gradientUnits="userSpaceOnUse">
			<stop  offset="0" style="stop-color:#F16074"/>
			<stop  offset="0.1105" style="stop-color:#F16575;stop-opacity:0.8895"/>
			<stop  offset="0.256" style="stop-color:#F27276;stop-opacity:0.744"/>
			<stop  offset="0.4211" style="stop-color:#F38677;stop-opacity:0.5789"/>
			<stop  offset="0.6007" style="stop-color:#F5A077;stop-opacity:0.3993"/>
			<stop  offset="0.7919" style="stop-color:#F9C274;stop-opacity:0.2081"/>
			<stop  offset="0.9902" style="stop-color:#FEEB69;stop-opacity:9.828448e-03"/>
			<stop  offset="1" style="stop-color:#FFEE68;stop-opacity:0"/>
		</radialGradient>
		<ellipse class="st1" cx="157.5" cy="335" rx="132.7" ry="129.5"/>
	</g>
	<path class="st2" d="M127.5,201.1"/>
	<path class="st2" d="M257,174.3c-16.1,10.1-38.8,16.2-54.2,7.5c-20.6-11.7-46.7-3.1-66.7,27.6c-2.7,7.9-4.2,16.4-4.2,25.2
		c0,9.9,1.9,19.3,5.3,28c26.7,12.2,58.2,29.3,82.9,48.3c37.3-5.4,66-37.5,66-76.3C286.1,210.2,274.7,188.4,257,174.3z"/>
	<g id="Layer_5">
		<circle class="st3" cx="244.6" cy="248.7" r="16.9"/>
	</g>
</g>
<g id="Layer_1_copy_2">
	<g id="Layer_4_copy">
		
			<radialGradient id="SVGID_2_" cx="-162.5" cy="334.9569" r="131.0772" gradientTransform="matrix(-1 0 0 1 315 0)" gradientUnits="userSpaceOnUse">
			<stop  offset="0" style="stop-color:#F16074"/>
			<stop  offset="0.1105" style="stop-color:#F16575;stop-opacity:0.8895"/>
			<stop  offset="0.256" style="stop-color:#F27276;stop-opacity:0.744"/>
			<stop  offset="0.4211" style="stop-color:#F38677;stop-opacity:0.5789"/>
			<stop  offset="0.6007" style="stop-color:#F5A077;stop-opacity:0.3993"/>
			<stop  offset="0.7919" style="stop-color:#F9C274;stop-opacity:0.2081"/>
			<stop  offset="0.9902" style="stop-color:#FEEB69;stop-opacity:9.828448e-03"/>
			<stop  offset="1" style="stop-color:#FFEE68;stop-opacity:0"/>
		</radialGradient>
		<ellipse class="st4" cx="477.5" cy="335" rx="132.7" ry="129.5"/>
	</g>
	<path class="st2" d="M507.5,201.1"/>
	<path class="st2" d="M378,174.3c16.1,10.1,38.8,16.2,54.2,7.5c20.6-11.7,46.7-3.1,66.7,27.6c2.7,7.9,4.2,16.4,4.2,25.2
		c0,9.9-1.9,19.3-5.3,28c-26.7,12.2-58.2,29.3-82.9,48.3c-37.3-5.4-66-37.5-66-76.3C348.9,210.2,360.3,188.4,378,174.3z"/>
	<g id="Layer_5_copy">
		<circle class="st3" cx="390.4" cy="248.7" r="16.9"/>
	</g>
</g>
<g id="Layer_9">
	<path class="st2" d="M139.6,337.1c0,0,135,82.5,184.5,90c49.4,7.5,117,0,166.5-45c-13.1,62.3-64.4,187.5-141.7,166.5
		S145.5,443.6,139.6,337.1z"/>
</g>
<g id="mask" class="st5">
	<g class="st6">
		<path d="M315,630h315V315C630,489,489,630,315,630z"/>
		<path d="M315,0c174,0,315,141,315,315V0H315z"/>
		<path d="M0,315v315h315C141,630,0,489,0,315z"/>
		<path d="M315,0H0v315C0,141,141,0,315,0z"/>
	</g>
</g>
</svg>
